<svg width="752" height="681" viewBox="0 0 752 681" fill="none" xmlns="http://www.w3.org/2000/svg">
<path d="M748.102 297.89C744.001 270.009 734.793 242.744 727.965 215.18C725.549 215.18 729.247 215.18 726.848 215.18C616.591 296.823 500.219 378.533 389.943 460.126C394.007 440.382 401.201 423.056 405.979 405.097C425.914 330.741 387.471 256.051 315.602 228.053C236.281 197.154 137.904 220.85 87.2513 284.65C35.683 349.584 31.3994 420.788 61.4397 493.893C112.697 618.742 268.299 696.867 422.07 677.79C595.813 656.246 777.959 500.447 748.102 297.89Z" fill="#F8FAFB"/>
<path d="M187.515 191.018C324.023 155.082 461.301 121.564 598.231 87.0129C604.29 85.4788 610.313 83.7946 617.489 81.8602C524.768 0.233888 339.474 -36.0852 186.545 47.6088C53.807 120.264 -34.9593 298.808 13.3139 399.978C15.1445 386.504 16.0416 375.081 18.22 363.842C35.5742 274.528 92.4329 216.031 187.515 191.018Z" fill="#F8FAFB"/>
</svg>
