<svg width="24" height="24" viewBox="0 0 24 24" fill="none" xmlns="http://www.w3.org/2000/svg">
<rect x="3" y="9" width="18" height="12" rx="1" stroke="#33394C" stroke-width="1.5"/>
<path d="M6.25 7.5C6.25 5.15279 8.15279 3.25 10.5 3.25H13.5C15.8472 3.25 17.75 5.15279 17.75 7.5H16.25C16.25 5.98122 15.0188 4.75 13.5 4.75H10.5C8.98122 4.75 7.75 5.98122 7.75 7.5H6.25ZM17 11H7H17ZM6.25 11V7.5C6.25 5.15279 8.15279 3.25 10.5 3.25V4.75C8.98122 4.75 7.75 5.98122 7.75 7.5V11H6.25ZM13.5 3.25C15.8472 3.25 17.75 5.15279 17.75 7.5V11H16.25V7.5C16.25 5.98122 15.0188 4.75 13.5 4.75V3.25Z" fill="#33394C"/>
</svg>
