<svg width="125" height="32" viewBox="0 0 125 32" fill="none" xmlns="http://www.w3.org/2000/svg">
<g clip-path="url(#clip0_2801_2753)">
<path d="M31.8623 14.0048C31.6876 12.694 31.2955 11.4122 31.0046 10.1163C30.9017 10.1163 31.0592 10.1163 30.9571 10.1163C26.2611 13.9547 21.3048 17.7962 16.608 21.6322C16.7811 20.7039 17.0875 19.8894 17.291 19.045C18.1401 15.5493 16.5028 12.0378 13.4418 10.7215C10.0635 9.26882 5.87354 10.3829 3.7162 13.3824C1.51987 16.4352 1.33742 19.7828 2.61686 23.2197C4.79994 29.0894 11.4271 32.7623 17.9764 31.8655C25.3762 30.8526 33.1339 23.5278 31.8623 14.0048Z" fill="#E85231"/>
<path d="M7.98639 8.98038C13.8004 7.2909 19.6471 5.71511 25.4791 4.0907C25.7371 4.01858 25.9936 3.93939 26.2993 3.84845C22.3502 0.0108739 14.4584 -1.69663 7.94506 2.23816C2.29168 5.65396 -1.48894 14.048 0.567049 18.8044C0.645016 18.171 0.683222 17.6339 0.776003 17.1055C1.51513 12.9065 3.93678 10.1563 7.98639 8.98038Z" fill="#E85231"/>
<path d="M43.2002 22.3611L47.1089 9.92451H50.2594L54.1681 22.3611H51.5735L50.7817 19.7561H46.536L45.761 22.3611H43.2002ZM47.1257 17.5209H50.192L48.6589 12.0589L47.1257 17.5209Z" fill="#111920"/>
<path d="M58.126 22.4619C57.4184 22.4619 56.8231 22.3163 56.3401 22.025C55.8571 21.7225 55.4921 21.2407 55.245 20.5796C55.0091 19.9074 54.8912 19.0279 54.8912 17.9411C54.8912 16.8206 54.9923 15.9131 55.1945 15.2185C55.4079 14.5238 55.7617 14.014 56.2559 13.6891C56.7501 13.3642 57.4296 13.2017 58.2944 13.2017C58.71 13.2017 59.12 13.2465 59.5243 13.3362C59.9287 13.4146 60.2881 13.5098 60.6026 13.6219V9.53796H63.1129V22.3611H61.0069L60.6026 21.504C60.4116 21.6832 60.1758 21.8457 59.895 21.9914C59.6254 22.137 59.339 22.2547 59.0357 22.3443C58.7325 22.4227 58.4292 22.4619 58.126 22.4619ZM59.002 20.462C59.339 20.462 59.6422 20.406 59.9118 20.2939C60.1926 20.1819 60.4229 20.0698 60.6026 19.9578V15.4201C60.3779 15.3417 60.1421 15.2633 59.895 15.1848C59.6479 15.1064 59.3839 15.0672 59.1031 15.0672C58.6875 15.0672 58.3506 15.14 58.0923 15.2857C57.8452 15.4313 57.6655 15.7058 57.5531 16.1092C57.4408 16.5013 57.3847 17.0727 57.3847 17.8234C57.3847 18.5181 57.4352 19.0615 57.5363 19.4536C57.6486 19.8346 57.8227 20.0979 58.0586 20.2435C58.2944 20.3892 58.6089 20.462 59.002 20.462Z" fill="#111920"/>
<path d="M67.2575 22.3611L64.225 13.3362H66.8027L68.757 20.0586L70.7619 13.3362H73.3059L70.1385 22.3611H67.2575Z" fill="#111920"/>
<path d="M77.9714 22.4451C76.9717 22.4451 76.1743 22.3163 75.579 22.0586C74.9837 21.7897 74.5513 21.3191 74.2817 20.6469C74.0234 19.9746 73.8942 19.0447 73.8942 17.857C73.8942 16.6358 74.0178 15.689 74.2649 15.0168C74.512 14.3445 74.9276 13.874 75.5116 13.6051C76.0957 13.3362 76.8875 13.2017 77.8871 13.2017C78.7857 13.2017 79.5045 13.2913 80.0436 13.4706C80.5828 13.6499 80.9703 13.9636 81.2061 14.4118C81.4532 14.8599 81.5768 15.493 81.5768 16.3109C81.5768 16.9159 81.4532 17.3977 81.2061 17.7562C80.9703 18.1035 80.6333 18.3556 80.1953 18.5125C79.7572 18.6581 79.2406 18.731 78.6453 18.731H76.3708C76.3933 19.1903 76.4607 19.5601 76.573 19.8402C76.6966 20.1091 76.9156 20.3051 77.2301 20.4284C77.5558 20.5404 78.0219 20.5964 78.6284 20.5964H81.2735V22.0586C80.8355 22.1482 80.3525 22.2378 79.8246 22.3275C79.308 22.4059 78.6902 22.4451 77.9714 22.4451ZM76.3371 17.252H78.3926C78.7295 17.252 78.9766 17.1848 79.1339 17.0503C79.2911 16.9159 79.3697 16.675 79.3697 16.3277C79.3697 16.0027 79.3192 15.7451 79.2181 15.5546C79.117 15.3529 78.9598 15.2129 78.7464 15.1344C78.533 15.0448 78.2466 15 77.8871 15C77.5053 15 77.202 15.0672 76.9774 15.2017C76.7527 15.3249 76.5899 15.549 76.4888 15.8739C76.3877 16.1988 76.3371 16.6582 76.3371 17.252Z" fill="#111920"/>
<path d="M83.2129 22.3611V13.3362H85.1335L85.7063 14.7143C86.032 14.2997 86.3971 13.9468 86.8014 13.6555C87.217 13.3642 87.7056 13.2185 88.2672 13.2185C88.3907 13.2185 88.5143 13.2241 88.6378 13.2353C88.7726 13.2465 88.8962 13.2689 89.0085 13.3026V15.8571C88.84 15.8347 88.6603 15.8179 88.4693 15.8067C88.2896 15.7843 88.1155 15.7731 87.9471 15.7731C87.6213 15.7731 87.3237 15.8123 87.0541 15.8907C86.7958 15.9579 86.5543 16.0644 86.3297 16.21C86.1163 16.3445 85.9085 16.5237 85.7063 16.7478V22.3611H83.2129Z" fill="#111920"/>
<path d="M93.9384 22.3611C93.242 22.3611 92.6748 22.2603 92.2368 22.0586C91.81 21.8569 91.5011 21.5208 91.3102 21.0502C91.1192 20.5796 91.035 19.9466 91.0574 19.1511L91.1417 15.3361H89.7265V13.7395L91.2259 13.3362L91.5629 10.8152H93.5341V13.3362H95.6569V15.3361H93.5341V19.1343C93.5341 19.3808 93.5565 19.5825 93.6015 19.7393C93.6464 19.8962 93.7082 20.025 93.7868 20.1259C93.8766 20.2155 93.9777 20.2827 94.09 20.3275C94.2024 20.3724 94.3147 20.4004 94.427 20.4116L95.5726 20.5124V22.3611H93.9384Z" fill="#111920"/>
<path d="M100.925 22.4451C100.183 22.4451 99.5488 22.3723 99.0209 22.2266C98.493 22.0698 98.0606 21.8121 97.7236 21.4536C97.3979 21.095 97.1564 20.6188 96.9992 20.025C96.8531 19.4312 96.7801 18.6973 96.7801 17.8234C96.7801 16.9047 96.8531 16.1484 96.9992 15.5546C97.1564 14.9496 97.3979 14.479 97.7236 14.1429C98.0606 13.7955 98.493 13.5546 99.0209 13.4202C99.56 13.2745 100.195 13.2017 100.925 13.2017C101.677 13.2017 102.317 13.2745 102.845 13.4202C103.373 13.5658 103.8 13.8123 104.126 14.1597C104.463 14.4958 104.704 14.9664 104.85 15.5714C105.007 16.1652 105.086 16.9159 105.086 17.8234C105.086 18.7197 105.013 19.4704 104.867 20.0754C104.721 20.6693 104.485 21.1398 104.159 21.4872C103.834 21.8345 103.401 22.081 102.862 22.2266C102.334 22.3723 101.688 22.4451 100.925 22.4451ZM100.925 20.462C101.228 20.462 101.481 20.434 101.683 20.378C101.896 20.3219 102.065 20.2099 102.188 20.0418C102.323 19.8626 102.424 19.5937 102.492 19.2351C102.559 18.8766 102.593 18.406 102.593 17.8234C102.593 17.2296 102.559 16.759 102.492 16.4117C102.424 16.0532 102.323 15.7899 102.188 15.6218C102.065 15.4425 101.896 15.3249 101.683 15.2689C101.481 15.2129 101.228 15.1848 100.925 15.1848C100.633 15.1848 100.38 15.2129 100.167 15.2689C99.9644 15.3249 99.7959 15.4425 99.6611 15.6218C99.5263 15.7899 99.4252 16.0532 99.3578 16.4117C99.3017 16.759 99.2736 17.2296 99.2736 17.8234C99.2736 18.406 99.3017 18.8766 99.3578 19.2351C99.4252 19.5937 99.5263 19.8626 99.6611 20.0418C99.7959 20.2099 99.9644 20.3219 100.167 20.378C100.38 20.434 100.633 20.462 100.925 20.462Z" fill="#111920"/>
<path d="M106.74 22.3611V13.3362H108.796L109.234 14.2605C109.571 13.9804 109.992 13.7339 110.497 13.521C111.014 13.2969 111.542 13.1849 112.081 13.1849C112.822 13.1849 113.395 13.3306 113.8 13.6219C114.204 13.9132 114.485 14.3053 114.642 14.7983C114.81 15.2801 114.895 15.8179 114.895 16.4117V22.3611H112.401V16.731C112.401 16.4397 112.345 16.1988 112.233 16.0083C112.132 15.8179 111.986 15.6722 111.795 15.5714C111.604 15.4706 111.374 15.4201 111.104 15.4201C110.868 15.4201 110.638 15.4481 110.413 15.5042C110.2 15.5602 109.992 15.6386 109.79 15.7394C109.599 15.8403 109.414 15.9579 109.234 16.0924V22.3611H106.74Z" fill="#111920"/>
<path d="M120.568 22.4451C119.568 22.4451 118.771 22.3163 118.175 22.0586C117.58 21.7897 117.148 21.3191 116.878 20.6469C116.62 19.9746 116.491 19.0447 116.491 17.857C116.491 16.6358 116.614 15.689 116.861 15.0168C117.108 14.3445 117.524 13.874 118.108 13.6051C118.692 13.3362 119.484 13.2017 120.484 13.2017C121.382 13.2017 122.101 13.2913 122.64 13.4706C123.179 13.6499 123.567 13.9636 123.803 14.4118C124.05 14.8599 124.173 15.493 124.173 16.3109C124.173 16.9159 124.05 17.3977 123.803 17.7562C123.567 18.1035 123.23 18.3556 122.792 18.5125C122.354 18.6581 121.837 18.731 121.242 18.731H118.967C118.99 19.1903 119.057 19.5601 119.169 19.8402C119.293 20.1091 119.512 20.3051 119.826 20.4284C120.152 20.5404 120.618 20.5964 121.225 20.5964H123.87V22.0586C123.432 22.1482 122.949 22.2378 122.421 22.3275C121.904 22.4059 121.287 22.4451 120.568 22.4451ZM118.934 17.252H120.989C121.326 17.252 121.573 17.1848 121.73 17.0503C121.888 16.9159 121.966 16.675 121.966 16.3277C121.966 16.0027 121.916 15.7451 121.815 15.5546C121.713 15.3529 121.556 15.2129 121.343 15.1344C121.129 15.0448 120.843 15 120.484 15C120.102 15 119.798 15.0672 119.574 15.2017C119.349 15.3249 119.186 15.549 119.085 15.8739C118.984 16.1988 118.934 16.6582 118.934 17.252Z" fill="#111920"/>
</g>
<defs>
<clipPath id="clip0_2801_2753">
<rect width="124.8" height="32.0002" fill="white"/>
</clipPath>
</defs>
</svg>
